<svg width="172" height="58" viewBox="0 0 172 58" fill="none" xmlns="http://www.w3.org/2000/svg">
<g filter="url(#filter0_d_426_2091)">
<path d="M65.0867 18.5154C66.278 19.7069 66.278 21.6385 65.0867 22.8299L43.4408 44.4759C42.2495 45.6672 40.3178 45.6672 39.1265 44.4759L25.5044 30.8541C24.313 29.6628 24.313 27.731 25.5044 26.5396L47.1506 4.89358C48.3419 3.70214 50.2736 3.70214 51.4649 4.89358L65.0867 18.5154Z" fill="white"/>
<path d="M49.8901 17.1013L49.8901 17.1012L36.2683 3.47942C36.2683 3.4794 36.2683 3.47939 36.2683 3.47937C34.2959 1.50685 31.0978 1.5069 29.1254 3.47936C29.1254 3.47937 29.1254 3.47938 29.1254 3.47939L7.47937 25.1254L8.87148 26.5175L7.47936 25.1254C5.50693 27.0978 5.50683 30.2959 7.47937 32.2683C7.47939 32.2683 7.4794 32.2684 7.47942 32.2684L21.1012 45.8901L21.1013 45.8902C23.0737 47.8625 26.2716 47.8625 28.2441 45.8901L28.2441 45.8901L49.8901 24.2441L49.8901 24.2441C51.8624 22.2716 51.8624 19.0737 49.8901 17.1013Z" fill="white" stroke="black" stroke-width="4"/>
<path d="M88.9732 26.2084C90.1229 26.4228 91.0681 26.9978 91.8089 27.9332C92.5493 28.8688 92.9199 29.9405 92.9199 31.1491C92.9199 32.2402 92.6469 33.2053 92.1013 34.0433C91.575 34.8619 90.8052 35.5051 89.7919 35.9729C88.7785 36.4407 87.5795 36.6746 86.196 36.6746H77.3965V16.2687H85.8157C87.1997 16.2687 88.3885 16.4928 89.3825 16.9411C90.3959 17.3893 91.1561 18.013 91.6625 18.8121C92.1888 19.6111 92.4522 20.5174 92.4522 21.5309C92.4522 22.7197 92.1303 23.7137 91.4871 24.5128C90.8637 25.3119 90.0258 25.8771 88.9732 26.2084ZM81.4891 24.6882H85.2309C86.2057 24.6882 86.9561 24.4738 87.4824 24.045C88.0082 23.5968 88.2715 22.9634 88.2715 22.1448C88.2715 21.3262 88.0082 20.6928 87.4824 20.2446C86.9561 19.7963 86.2057 19.5722 85.2309 19.5722H81.4891V24.6882ZM85.6113 33.3416C86.6053 33.3416 87.3751 33.1077 87.9207 32.6399C88.4861 32.1721 88.7683 31.5096 88.7683 30.6523C88.7683 29.7752 88.4759 29.0929 87.8912 28.6056C87.307 28.0989 86.5173 27.8455 85.5233 27.8455H81.4891V33.3416H85.6113Z" fill="white"/>
<path d="M102.204 36.9374C100.645 36.9374 99.2412 36.5963 97.994 35.9144C96.7467 35.2127 95.7623 34.2283 95.0413 32.9617C94.3396 31.6947 93.9888 30.2328 93.9888 28.5764C93.9888 26.9198 94.3493 25.4581 95.0703 24.1912C95.8111 22.9244 96.8148 21.9499 98.0814 21.2678C99.3485 20.5661 100.762 20.2153 102.32 20.2153C103.879 20.2153 105.292 20.5661 106.56 21.2678C107.826 21.9499 108.82 22.9244 109.541 24.1912C110.282 25.4581 110.652 26.9198 110.652 28.5764C110.652 30.2328 110.272 31.6947 109.512 32.9617C108.771 34.2283 107.758 35.2127 106.472 35.9144C105.205 36.5963 103.782 36.9374 102.204 36.9374ZM102.204 33.3711C102.944 33.3711 103.636 33.1956 104.279 32.8448C104.942 32.4741 105.468 31.9285 105.858 31.2075C106.248 30.4865 106.443 29.6094 106.443 28.5764C106.443 27.0367 106.033 25.8576 105.215 25.039C104.416 24.201 103.431 23.7819 102.262 23.7819C101.093 23.7819 100.109 24.201 99.3094 25.039C98.5299 25.8576 98.1399 27.0367 98.1399 28.5764C98.1399 30.1159 98.5202 31.3052 99.2804 32.1431C100.06 32.9617 101.034 33.3711 102.204 33.3711Z" fill="white"/>
<path d="M116.578 22.9927C117.104 22.1351 117.787 21.4627 118.625 20.9755C119.482 20.4882 120.457 20.2446 121.548 20.2446V24.5421H120.466C119.18 24.5421 118.206 24.8442 117.543 25.4484C116.9 26.0525 116.578 27.105 116.578 28.6057V36.6746H112.485V20.4785H116.578V22.9927Z" fill="white"/>
<path d="M122.083 28.5177C122.083 26.8806 122.405 25.4287 123.048 24.1618C123.711 22.895 124.607 21.9205 125.738 21.2383C126.868 20.5562 128.125 20.2152 129.509 20.2152C130.561 20.2152 131.565 20.449 132.52 20.9168C133.475 21.365 134.235 21.9692 134.8 22.7293V15.0406H138.952V36.6744H134.8V34.277C134.294 35.0763 133.582 35.719 132.666 36.2066C131.75 36.6937 130.688 36.9373 129.48 36.9373C128.115 36.9373 126.868 36.5864 125.738 35.8847C124.607 35.1831 123.711 34.1992 123.048 32.9321C122.405 31.6457 122.083 30.1742 122.083 28.5177ZM134.83 28.5762C134.83 27.5823 134.634 26.7344 134.245 26.0328C133.855 25.3117 133.329 24.766 132.666 24.3957C132.004 24.0059 131.292 23.811 130.532 23.811C129.772 23.811 129.07 23.9962 128.427 24.3665C127.784 24.7367 127.258 25.2825 126.848 26.0036C126.459 26.7052 126.264 27.5433 126.264 28.5177C126.264 29.4923 126.459 30.3496 126.848 31.0904C127.258 31.8114 127.784 32.3672 128.427 32.7567C129.09 33.1467 129.791 33.3414 130.532 33.3414C131.292 33.3414 132.004 33.1563 132.666 32.7861C133.329 32.3962 133.855 31.8506 134.245 31.1489C134.634 30.4279 134.83 29.5701 134.83 28.5762Z" fill="white"/>
<path d="M156.835 28.2256C156.835 28.8103 156.796 29.3365 156.718 29.8042H144.878C144.976 30.9736 145.385 31.8894 146.106 32.5524C146.827 33.215 147.714 33.5465 148.766 33.5465C150.287 33.5465 151.368 32.8936 152.011 31.5874H156.426C155.958 33.1468 155.062 34.4332 153.736 35.4466C152.411 36.4407 150.783 36.9374 148.854 36.9374C147.295 36.9374 145.892 36.5963 144.644 35.9144C143.416 35.2127 142.452 34.2283 141.75 32.9617C141.068 31.6947 140.727 30.2328 140.727 28.5764C140.727 26.9003 141.068 25.4288 141.75 24.162C142.432 22.8951 143.387 21.9207 144.615 21.2385C145.843 20.5564 147.256 20.2153 148.854 20.2153C150.393 20.2153 151.768 20.5466 152.976 21.2093C154.204 21.872 155.149 22.8172 155.812 24.045C156.494 25.2534 156.835 26.6469 156.835 28.2256ZM152.596 27.0562C152.576 26.0038 152.197 25.1657 151.456 24.542C150.715 23.8989 149.809 23.5773 148.737 23.5773C147.724 23.5773 146.866 23.8891 146.165 24.5128C145.482 25.117 145.063 25.9648 144.907 27.0562H152.596Z" fill="white"/>
<path d="M162.746 22.9927C163.272 22.1351 163.955 21.4627 164.793 20.9755C165.65 20.4882 166.625 20.2446 167.716 20.2446V24.5421H166.634C165.348 24.5421 164.374 24.8442 163.711 25.4484C163.068 26.0525 162.746 27.105 162.746 28.6057V36.6746H158.653V20.4785H162.746V22.9927Z" fill="white"/>
</g>
<defs>
<filter id="filter0_d_426_2091" x="0" y="0" width="171.716" height="57.3694" filterUnits="userSpaceOnUse" color-interpolation-filters="sRGB">
<feFlood flood-opacity="0" result="BackgroundImageFix"/>
<feColorMatrix in="SourceAlpha" type="matrix" values="0 0 0 0 0 0 0 0 0 0 0 0 0 0 0 0 0 0 127 0" result="hardAlpha"/>
<feOffset dy="4"/>
<feGaussianBlur stdDeviation="2"/>
<feComposite in2="hardAlpha" operator="out"/>
<feColorMatrix type="matrix" values="0 0 0 0 0 0 0 0 0 0 0 0 0 0 0 0 0 0 0.25 0"/>
<feBlend mode="normal" in2="BackgroundImageFix" result="effect1_dropShadow_426_2091"/>
<feBlend mode="normal" in="SourceGraphic" in2="effect1_dropShadow_426_2091" result="shape"/>
</filter>
</defs>
</svg>
