<svg width="60" height="60" viewBox="0 0 60 60" fill="none" xmlns="http://www.w3.org/2000/svg">
<path d="M30 55C43.8071 55 55 43.8071 55 30C55 16.1929 43.8071 5 30 5C16.1929 5 5 16.1929 5 30C5 43.8071 16.1929 55 30 55Z" stroke="url(#paint0_linear_460_148)" stroke-width="3" stroke-linecap="round" stroke-linejoin="round"/>
<path d="M30.6819 15V45" stroke="white" stroke-width="3" stroke-linecap="round" stroke-linejoin="round"/>
<path d="M37.5 20.4546H27.2727C26.0069 20.4546 24.793 20.9574 23.8979 21.8525C23.0028 22.7475 22.5 23.9615 22.5 25.2273C22.5 26.4931 23.0028 27.7071 23.8979 28.6021C24.793 29.4972 26.0069 30 27.2727 30H34.0909C35.3567 30 36.5707 30.5029 37.4657 31.3979C38.3608 32.293 38.8636 33.507 38.8636 34.7728C38.8636 36.0386 38.3608 37.2525 37.4657 38.1476C36.5707 39.0427 35.3567 39.5455 34.0909 39.5455H22.5" stroke="white" stroke-width="3" stroke-linecap="round" stroke-linejoin="round"/>
<defs>
<linearGradient id="paint0_linear_460_148" x1="5" y1="20.7143" x2="55.0004" y2="20.7267" gradientUnits="userSpaceOnUse">
<stop stop-color="#DEC880"/>
<stop offset="0.223958" stop-color="white"/>
<stop offset="0.578125" stop-color="#FF347D"/>
<stop offset="1" stop-color="#827DED"/>
<stop offset="1" stop-color="#827DED"/>
</linearGradient>
</defs>
</svg>
