<svg width="60" height="60" viewBox="0 0 60 60" fill="none" xmlns="http://www.w3.org/2000/svg">
<path d="M23.8271 40.306C26.813 39.2882 29.653 37.9262 32.2937 36.257M32.2937 36.257C36.995 33.2852 41.0647 29.3405 44.2015 24.6351L53.8915 10.1001C54.2068 9.62732 54.375 9.07175 54.375 8.50348C54.375 6.91373 53.0863 5.625 51.4965 5.625C50.9283 5.625 50.3728 5.79323 49.8998 6.10845L35.3647 15.7984C30.6595 18.9353 26.7147 23.0051 23.7431 27.7062M32.2937 36.257C30.599 32.4582 27.5417 29.401 23.7431 27.7062M19.6875 36.1922C20.7058 33.1992 22.0702 30.3527 23.7431 27.7062" stroke="white" stroke-width="3" stroke-linecap="round" stroke-linejoin="round"/>
<path d="M23.8269 40.306C22.7127 37.5608 20.0198 35.625 16.8748 35.625C12.7326 35.625 9.37476 38.9828 9.37476 43.125C9.37476 46.2315 6.85631 48.75 3.74971 48.75C3.62296 48.75 3.49721 48.7458 3.37256 48.7375C5.31596 52.107 8.95548 54.375 13.1247 54.375C19.3203 54.375 24.3461 49.3667 24.3746 43.1777C24.3747 43.1602 24.3748 43.1428 24.3748 43.125C24.3748 42.128 24.1802 41.1763 23.8269 40.306Z" stroke="url(#paint0_linear_460_157)" stroke-width="3" stroke-linecap="round" stroke-linejoin="round"/>
<defs>
<linearGradient id="paint0_linear_460_157" x1="3.37256" y1="41.5179" x2="24.3749" y2="41.5237" gradientUnits="userSpaceOnUse">
<stop stop-color="#DEC880"/>
<stop offset="0.223958" stop-color="white"/>
<stop offset="0.578125" stop-color="#FF347D"/>
<stop offset="1" stop-color="#827DED"/>
<stop offset="1" stop-color="#827DED"/>
</linearGradient>
</defs>
</svg>
