<svg width="32" height="32" viewBox="0 0 32 32" fill="none" xmlns="http://www.w3.org/2000/svg">
<path d="M14.7477 12.0785C15.4421 11.6776 16.5679 11.6776 17.2623 12.0785L30.7368 19.8573C31.4312 20.2582 31.4312 20.9081 30.7368 21.309L17.2623 29.0878C16.5679 29.4887 15.4421 29.4887 14.7477 29.0878L1.2732 21.309C0.578825 20.9081 0.578827 20.2582 1.2732 19.8573L14.7477 12.0785Z" fill="#171717"/>
<path d="M14.7316 7.68464C15.4261 7.2837 16.5521 7.2837 17.2466 7.68464L30.7207 15.4632C31.4152 15.8642 31.4152 16.5142 30.7207 16.9151L17.2466 24.6937C16.5521 25.0946 15.4261 25.0946 14.7316 24.6937L1.25757 16.9151C0.563061 16.5142 0.563062 15.8642 1.25757 15.4632L14.7316 7.68464Z" fill="#212121"/>
<path d="M14.7316 2.84748C15.4261 2.44654 16.5521 2.44655 17.2466 2.84748L30.7207 10.6261C31.4152 11.027 31.4152 11.677 30.7207 12.078L17.2466 19.8566C16.5521 20.2575 15.4261 20.2575 14.7316 19.8566L1.25757 12.078C0.563061 11.677 0.563062 11.027 1.25757 10.6261L14.7316 2.84748Z" fill="#333333"/>
<rect x="21" y="1" width="10" height="10" rx="1.45833" fill="black" stroke="url(#paint0_linear_64_399)" stroke-width="0.833333"/>
<path d="M23.5 6.54772V5.46312H28.2917V6.54772H23.5ZM25.3471 3.5H26.4554V8.5H25.3471V3.5Z" fill="white"/>
<defs>
<linearGradient id="paint0_linear_64_399" x1="20.9459" y1="5.24205" x2="31.024" y2="5.24205" gradientUnits="userSpaceOnUse">
<stop stop-color="#DEC880"/>
<stop offset="0.155674" stop-color="white"/>
<stop offset="0.567708" stop-color="#FF347D"/>
<stop offset="1" stop-color="#827DED"/>
</linearGradient>
</defs>
</svg>
