<svg width="89" height="87" viewBox="0 0 89 87" fill="none" xmlns="http://www.w3.org/2000/svg">
<path d="M41.9055 38.1674C43.3404 37.3391 45.6669 37.3391 47.1018 38.1674L84.6325 59.8339C86.0674 60.6623 86.0674 62.0053 84.6325 62.8337L47.1018 84.5002C45.6669 85.3285 43.3404 85.3285 41.9055 84.5002L4.37484 62.8337C2.93993 62.0053 2.93993 60.6623 4.37484 59.8339L41.9055 38.1674Z" fill="url(#paint0_linear_416_2136)" stroke="#7A7A7A" stroke-width="2"/>
<path d="M41.8609 19.9491C43.2958 19.1207 45.6222 19.1207 47.0571 19.9491L84.5878 41.6155C86.0227 42.4439 86.0227 43.787 84.5878 44.6153L47.0571 66.2818C45.6222 67.1102 43.2958 67.1102 41.8609 66.2818L4.33016 44.6153C2.89525 43.787 2.89525 42.4439 4.33016 41.6155L41.8609 19.9491Z" fill="url(#paint1_linear_416_2136)" fill-opacity="0.6" stroke="white" stroke-width="2"/>
<path d="M40.9624 2.0186C42.8935 0.903758 46.0245 0.90376 47.9556 2.0186L85.4214 23.6476C87.3525 24.7624 87.3525 26.57 85.4214 27.6848L47.9556 49.3138C46.0245 50.4286 42.8935 50.4286 40.9624 49.3138L3.49657 27.6848C1.56543 26.57 1.56544 24.7624 3.49657 23.6476L40.9624 2.0186Z" fill="url(#paint2_linear_416_2136)"/>
<defs>
<linearGradient id="paint0_linear_416_2136" x1="20.2992" y1="45.5478" x2="68.8527" y2="49.7852" gradientUnits="userSpaceOnUse">
<stop stop-color="#303639"/>
<stop offset="1" stop-color="#303639" stop-opacity="0"/>
</linearGradient>
<linearGradient id="paint1_linear_416_2136" x1="20.2545" y1="27.3294" x2="68.808" y2="31.5668" gradientUnits="userSpaceOnUse">
<stop stop-color="white"/>
<stop offset="1" stop-color="white" stop-opacity="0"/>
</linearGradient>
<linearGradient id="paint2_linear_416_2136" x1="-16.9999" y1="28.9999" x2="62.5985" y2="63.4642" gradientUnits="userSpaceOnUse">
<stop stop-color="#DEC880"/>
<stop offset="0.166667" stop-color="white"/>
<stop offset="0.567608" stop-color="#FF3980"/>
<stop offset="0.567708" stop-color="#FF347D"/>
<stop offset="1" stop-color="#827DED"/>
</linearGradient>
</defs>
</svg>
