<svg width="189" height="47" viewBox="0 0 189 47" fill="none" xmlns="http://www.w3.org/2000/svg">
<path d="M58.9367 28.6346H51.9912L50.8418 31.9576H47.1689L53.44 14.4933H57.5127L63.7841 31.9576H60.0861L58.9367 28.6346ZM57.9876 25.8365L55.4642 18.5409L52.9403 25.8365H57.9876Z" fill="white"/>
<path d="M78.1957 18.1161V31.9576H74.6727V30.209C74.223 30.8087 73.632 31.2832 72.8989 31.633C72.1828 31.9663 71.3997 32.1327 70.5506 32.1327C69.4677 32.1327 68.5099 31.9076 67.6773 31.4579C66.8442 30.9916 66.1863 30.3172 65.7031 29.4342C65.2368 28.5346 65.0039 27.4687 65.0039 26.2363V18.1161H68.5016V25.7365C68.5016 26.836 68.7763 27.6855 69.326 28.2852C69.8757 28.8679 70.6253 29.1595 71.5748 29.1595C72.5408 29.1595 73.2987 28.8679 73.8484 28.2852C74.3981 27.6855 74.6727 26.836 74.6727 25.7365V18.1161H78.1957Z" fill="white"/>
<path d="M84.7205 20.9895V27.6856C84.7205 28.1519 84.8287 28.4934 85.0455 28.7098C85.2784 28.9097 85.6617 29.0097 86.1945 29.0097H87.8188V31.9577H85.62C82.672 31.9577 81.1975 30.5254 81.1975 27.6604V20.9895H79.5488V18.1162H81.1975V14.6932H84.7205V18.1162H87.8188V20.9895H84.7205Z" fill="white"/>
<path d="M95.4806 32.1828C94.1483 32.1828 92.9489 31.8912 91.883 31.3085C90.817 30.7088 89.9757 29.8675 89.3595 28.7846C88.7598 27.7021 88.46 26.4528 88.46 25.037C88.46 23.6212 88.7681 22.3719 89.3843 21.2893C90.0174 20.2066 90.8752 19.3738 91.9577 18.7908C93.0406 18.1912 94.2482 17.8914 95.5806 17.8914C96.9134 17.8914 98.121 18.1912 99.2035 18.7908C100.286 19.3738 101.135 20.2066 101.752 21.2893C102.385 22.3719 102.701 23.6212 102.701 25.037C102.701 26.4528 102.377 27.7021 101.727 28.7846C101.094 29.8675 100.228 30.7088 99.1287 31.3085C98.0458 31.8912 96.8299 32.1828 95.4806 32.1828ZM95.4806 29.1344C96.1138 29.1344 96.7052 28.9845 97.2545 28.6847C97.8211 28.3683 98.2709 27.902 98.6038 27.2858C98.9371 26.6692 99.1035 25.92 99.1035 25.037C99.1035 23.7212 98.7537 22.7134 98.0541 22.0138C97.3714 21.2976 96.5301 20.9395 95.5306 20.9395C94.5311 20.9395 93.6903 21.2976 93.0071 22.0138C92.341 22.7134 92.0077 23.7212 92.0077 25.037C92.0077 26.3528 92.3327 27.3688 92.9824 28.0854C93.6486 28.7846 94.4812 29.1344 95.4806 29.1344Z" fill="white"/>
<path d="M121.458 17.9163C123.157 17.9163 124.523 18.4409 125.555 19.4903C126.605 20.523 127.13 21.972 127.13 23.8375V31.9576H123.631V24.3125C123.631 23.2296 123.357 22.4053 122.807 21.839C122.257 21.2559 121.508 20.9644 120.558 20.9644C119.609 20.9644 118.851 21.2559 118.285 21.839C117.735 22.4053 117.46 23.2296 117.46 24.3125V31.9576H113.962V24.3125C113.962 23.2296 113.687 22.4053 113.138 21.839C112.588 21.2559 111.838 20.9644 110.889 20.9644C109.923 20.9644 109.157 21.2559 108.591 21.839C108.041 22.4053 107.766 23.2296 107.766 24.3125V31.9576H104.268V18.1161H107.766V19.7901C108.216 19.2071 108.79 18.7491 109.49 18.416C110.206 18.0828 110.989 17.9163 111.838 17.9163C112.921 17.9163 113.887 18.1494 114.737 18.6158C115.586 19.0656 116.244 19.7151 116.711 20.5647C117.16 19.7651 117.81 19.1238 118.66 18.6408C119.526 18.1578 120.458 17.9163 121.458 17.9163Z" fill="white"/>
<path d="M128.55 24.987C128.55 23.5878 128.825 22.3471 129.375 21.2643C129.941 20.1816 130.699 19.3488 131.648 18.7658C132.614 18.1829 133.688 17.8914 134.871 17.8914C135.904 17.8914 136.803 18.0996 137.569 18.516C138.352 18.9324 138.977 19.4571 139.443 20.09V18.1162H142.966V31.9577H139.443V29.934C138.994 30.5837 138.369 31.1251 137.569 31.5579C136.787 31.9747 135.879 32.1828 134.846 32.1828C133.68 32.1828 132.614 31.883 131.648 31.2833C130.699 30.6836 129.941 29.8423 129.375 28.7598C128.825 27.6604 128.55 26.4028 128.55 24.987ZM139.443 25.037C139.443 24.1874 139.277 23.463 138.944 22.8634C138.611 22.2472 138.161 21.7809 137.595 21.4642C137.028 21.1311 136.42 20.9645 135.771 20.9645C135.121 20.9645 134.521 21.1227 133.972 21.4392C133.422 21.7557 132.972 22.222 132.622 22.8382C132.29 23.4378 132.123 24.1544 132.123 24.987C132.123 25.8201 132.29 26.5527 132.622 27.1859C132.972 27.8021 133.422 28.2766 133.972 28.6099C134.538 28.9432 135.138 29.1096 135.771 29.1096C136.42 29.1096 137.028 28.9515 137.595 28.6347C138.161 28.3018 138.611 27.8355 138.944 27.2358C139.277 26.6192 139.443 25.8866 139.443 25.037Z" fill="white"/>
<path d="M149.456 20.9895V27.6856C149.456 28.1519 149.564 28.4934 149.78 28.7098C150.014 28.9097 150.397 29.0097 150.93 29.0097H152.554V31.9577H150.355C147.407 31.9577 145.933 30.5254 145.933 27.6604V20.9895H144.284V18.1162H145.933V14.6932H149.456V18.1162H152.554V20.9895H149.456Z" fill="white"/>
<path d="M155.844 16.4672C155.228 16.4672 154.712 16.2756 154.295 15.8925C153.896 15.4928 153.696 15.0014 153.696 14.4184C153.696 13.8354 153.896 13.3524 154.295 12.9693C154.712 12.5695 155.228 12.3696 155.844 12.3696C156.46 12.3696 156.969 12.5695 157.368 12.9693C157.785 13.3524 157.993 13.8354 157.993 14.4184C157.993 15.0014 157.785 15.4928 157.368 15.8925C156.969 16.2756 156.46 16.4672 155.844 16.4672ZM157.568 18.1162V31.9577H154.07V18.1162H157.568Z" fill="white"/>
<path d="M166.171 32.1828C164.838 32.1828 163.639 31.8912 162.573 31.3085C161.507 30.7088 160.666 29.8675 160.049 28.7846C159.45 27.7021 159.15 26.4528 159.15 25.037C159.15 23.6212 159.458 22.3719 160.074 21.2893C160.707 20.2066 161.565 19.3738 162.648 18.7908C163.731 18.1912 164.938 17.8914 166.271 17.8914C167.603 17.8914 168.811 18.1912 169.893 18.7908C170.976 19.3738 171.826 20.2066 172.442 21.2893C173.075 22.3719 173.392 23.6212 173.392 25.037C173.392 26.4528 173.067 27.7021 172.417 28.7846C171.784 29.8675 170.918 30.7088 169.819 31.3085C168.736 31.8912 167.52 32.1828 166.171 32.1828ZM166.171 29.1344C166.804 29.1344 167.395 28.9845 167.945 28.6847C168.511 28.3683 168.961 27.902 169.294 27.2858C169.627 26.6692 169.793 25.92 169.793 25.037C169.793 23.7212 169.444 22.7134 168.744 22.0138C168.061 21.2976 167.22 20.9395 166.221 20.9395C165.221 20.9395 164.38 21.2976 163.697 22.0138C163.031 22.7134 162.698 23.7212 162.698 25.037C162.698 26.3528 163.023 27.3688 163.672 28.0854C164.338 28.7846 165.172 29.1344 166.171 29.1344Z" fill="white"/>
<path d="M182.628 17.9163C184.277 17.9163 185.61 18.4409 186.626 19.4903C187.642 20.523 188.15 21.972 188.15 23.8375V31.9576H184.652V24.3125C184.652 23.2131 184.377 22.3718 183.828 21.7891C183.278 21.1893 182.528 20.8894 181.579 20.8894C180.613 20.8894 179.847 21.1893 179.281 21.7891C178.731 22.3718 178.456 23.2131 178.456 24.3125V31.9576H174.958V18.1161H178.456V19.8401C178.922 19.2404 179.514 18.7741 180.23 18.4409C180.963 18.0911 181.762 17.9163 182.628 17.9163Z" fill="white"/>
<path fill-rule="evenodd" clip-rule="evenodd" d="M18.8423 13.5394C13.5551 13.5394 9.26891 17.8256 9.26891 23.1127V23.7827H0.27832V23.1127C0.27832 12.8602 8.5897 4.54883 18.8423 4.54883V13.5394Z" fill="white"/>
<path fill-rule="evenodd" clip-rule="evenodd" d="M26.4063 23.7829V23.1133H35.3972V23.7829C35.3972 34.0358 27.0855 42.3471 16.833 42.3471V33.3566C22.1203 33.3566 26.4063 29.0702 26.4063 23.7829Z" fill="white"/>
<path fill-rule="evenodd" clip-rule="evenodd" d="M18.5072 0V17.7534L33.916 9.04417L18.5072 0ZM17.1683 46.8958L17.1684 29.1425L1.75977 37.8515L17.1683 46.8958Z" fill="white"/>
</svg>
