<svg width="132" height="37" viewBox="0 0 132 37" fill="none" xmlns="http://www.w3.org/2000/svg">
<path d="M46.1287 32.4978C43.6917 32.4978 41.5993 32.0671 39.8517 31.2056C38.1041 30.344 36.6764 29.2241 35.5689 27.8456C34.4858 26.4672 33.6859 24.9657 33.169 23.3411C32.652 21.7165 32.3936 20.1535 32.3936 18.652V17.8397C32.3936 16.1659 32.652 14.5167 33.169 12.8922C33.7105 11.2676 34.5351 9.79068 35.6426 8.4615C36.7506 7.13227 38.1535 6.07385 39.8517 5.28619C41.5749 4.47391 43.6057 4.06775 45.9442 4.06775C48.3807 4.06775 50.498 4.51083 52.2944 5.39693C54.1162 6.25847 55.5684 7.48921 56.6514 9.08915C57.7345 10.6645 58.3868 12.5106 58.6085 14.6275H53.3286C53.1313 13.3968 52.6885 12.363 51.9995 11.526C51.3349 10.6645 50.4853 10.0245 49.4516 9.60606C48.4179 9.16303 47.2484 8.94149 45.9442 8.94149C44.615 8.94149 43.4334 9.17534 42.3996 9.64302C41.3654 10.0861 40.5041 10.7261 39.8151 11.5629C39.1256 12.3999 38.5963 13.3845 38.2272 14.5167C37.8824 15.649 37.7106 16.9044 37.7106 18.2828C37.7106 19.612 37.8824 20.8427 38.2272 21.975C38.5963 23.1073 39.1378 24.1042 39.8517 24.9657C40.5656 25.8026 41.4397 26.4549 42.4734 26.9226C43.532 27.3903 44.7503 27.6241 46.1287 27.6241C48.1468 27.6241 49.8456 27.1318 51.2241 26.1472C52.6269 25.138 53.4761 23.735 53.7715 21.9381H59.0514C58.8053 23.858 58.1529 25.618 57.0943 27.218C56.0362 28.8179 54.584 30.0979 52.7378 31.0579C50.8915 32.0178 48.6884 32.4978 46.1287 32.4978Z" fill="white"/>
<path d="M61.2236 31.7963V4.06775H66.3556V15.1535C66.8686 13.8902 67.5947 12.9149 68.5344 12.2276C69.5681 11.4891 70.8728 11.1199 72.448 11.1199H72.6692C74.9588 11.1199 76.6937 11.9076 77.8754 13.4829C79.0571 15.0582 79.6479 17.3474 79.6479 20.3504V31.7963H74.5154V19.8705C74.5154 18.5905 74.1463 17.5813 73.408 16.8428C72.6941 16.1044 71.7463 15.7352 70.5647 15.7352C69.3093 15.7352 68.2878 16.1536 67.5001 16.9905C66.7374 17.8028 66.3556 18.8736 66.3556 20.2027V31.7963H61.2236Z" fill="white"/>
<path fill-rule="evenodd" clip-rule="evenodd" d="M95.4666 27.9354V31.7964H99.5277V19.3536C99.5277 17.4829 99.1708 15.9691 98.4569 14.8122C97.7679 13.6553 96.7342 12.8061 95.3558 12.2645C94.0017 11.723 92.2913 11.4523 90.2233 11.4523C89.5588 11.4523 88.8449 11.4646 88.0822 11.4892C87.3434 11.4892 86.6173 11.5138 85.9034 11.563C85.1895 11.6123 84.5499 11.6615 83.9834 11.7107V16.0676C84.6729 16.0183 85.4483 15.9814 86.3097 15.9568C87.1959 15.9075 88.0695 15.8706 88.9313 15.846C89.7927 15.8214 90.5309 15.8091 91.1467 15.8091C92.3279 15.8091 93.2019 16.0922 93.7678 16.6583C94.3343 17.2244 94.617 18.086 94.617 19.2428V19.4275H90.5187C88.7467 19.4275 87.1959 19.6613 85.8668 20.129C84.5621 20.5967 83.5406 21.2982 82.8023 22.2335C82.0884 23.1689 81.7314 24.375 81.7314 25.8519C81.7314 27.2058 82.0269 28.3626 82.6177 29.3226C83.2329 30.2826 84.0821 31.021 85.1651 31.5379C86.2731 32.0548 87.5529 32.3133 89.005 32.3133C90.4079 32.3133 91.5896 32.0671 92.5496 31.5748C93.5339 31.0579 94.2972 30.3195 94.8387 29.3595C95.0924 28.9293 95.3019 28.4546 95.4666 27.9354ZM94.617 24.375V22.492H90.445C89.2633 22.492 88.3527 22.7874 87.7125 23.3781C87.0973 23.9443 86.7897 24.6827 86.7897 25.5935C86.7897 26.5042 87.0973 27.2427 87.7125 27.8088C88.3527 28.3749 89.2633 28.658 90.445 28.658C91.1589 28.658 91.8113 28.5349 92.4021 28.2888C93.0173 28.018 93.5217 27.575 93.9158 26.9596C94.3343 26.3196 94.5682 25.4581 94.617 24.375Z" fill="white"/>
<path d="M104.139 31.7964V11.4523H109.272V31.7964H104.139Z" fill="white"/>
<path d="M113.339 11.4522V31.7963H118.472V20.0181C118.472 18.7135 118.853 17.6797 119.616 16.9166C120.404 16.129 121.425 15.7351 122.681 15.7351C123.912 15.7351 124.872 16.1167 125.561 16.8797C126.275 17.6428 126.632 18.6397 126.632 19.8704V31.7963H131.764V20.3135C131.764 17.2612 131.148 14.9721 129.918 13.446C128.687 11.8952 126.878 11.1199 124.49 11.1199H124.269C122.669 11.1199 121.327 11.4645 120.244 12.1537C119.186 12.8429 118.386 13.8767 117.844 15.2551C117.668 15.6962 117.52 16.1739 117.401 16.6881V11.4522H113.339Z" fill="white"/>
<path d="M0.150391 23.3059C0.150391 25.1074 1.61116 26.5686 3.41306 26.5686C5.21496 26.5686 6.67573 25.1074 6.67573 23.3059C6.67573 21.985 4.7605 20.7424 4.7605 18.4119C4.7605 16.3145 6.67573 14.8388 6.67573 13.5179C6.67573 11.7164 5.21496 10.2552 3.41306 10.2552C1.61116 10.2552 0.150391 11.7164 0.150391 13.5179C0.150391 14.8388 2.06568 16.3145 2.06563 18.4119C2.06563 20.5093 0.150391 21.985 0.150391 23.3059Z" fill="white"/>
<path d="M15.9976 3.26267C15.9976 1.46108 17.4583 0 19.2602 0C21.0621 0 22.5228 1.46108 22.5228 3.26267C22.5228 3.82997 22.1695 4.38287 21.7664 5.01373C21.2309 5.85163 20.6076 6.82712 20.6076 8.15665C20.6076 9.32602 21.203 10.3022 21.7298 11.166C22.1479 11.8514 22.5228 12.4662 22.5228 13.0506C22.5228 13.1289 22.5201 13.2066 22.5147 13.2836C22.5201 13.3606 22.5228 13.4383 22.5228 13.5166C22.5228 14.0839 22.1695 14.6368 21.7664 15.2677C21.2309 16.1056 20.6076 17.0811 20.6076 18.4106C20.6076 19.58 21.203 20.5561 21.7298 21.4199C22.1479 22.1054 22.5228 22.7202 22.5228 23.3046C22.5228 23.383 22.5201 23.4607 22.5147 23.5376C22.5201 23.6146 22.5228 23.6923 22.5228 23.7707C22.5228 24.3551 22.1479 24.9699 21.7298 25.6553C21.203 26.5191 20.6076 27.4953 20.6076 28.6646C20.6076 29.9942 21.2309 30.9697 21.7664 31.8076C22.1695 32.4384 22.5228 32.9913 22.5228 33.5586C22.5228 35.3602 21.0621 36.8216 19.2602 36.8216C17.4583 36.8216 15.9976 35.3602 15.9976 33.5586C15.9976 32.9742 16.3725 32.3595 16.7906 31.674C17.3174 30.8102 17.9128 29.8341 17.9128 28.6646C17.9128 27.4953 17.3174 26.5191 16.7906 25.6553C16.3725 24.9699 15.9976 24.3551 15.9976 23.7707C15.9976 23.6923 16.0003 23.6146 16.0057 23.5376C16.0003 23.4607 15.9976 23.383 15.9976 23.3046C15.9976 22.7201 16.3725 22.1054 16.7906 21.4199C17.3174 20.5561 17.9128 19.58 17.9128 18.4106C17.9128 17.2412 17.3174 16.2651 16.7906 15.4013C16.3725 14.7158 15.9976 14.1011 15.9976 13.5166C15.9976 13.4383 16.0003 13.3606 16.0057 13.2836C16.0003 13.2067 15.9976 13.1289 15.9976 13.0506C15.9976 12.4662 16.3725 11.8514 16.7906 11.166C17.3174 10.3022 17.9128 9.32602 17.9128 8.15665C17.9128 6.98723 17.3174 6.01113 16.7906 5.1473C16.3725 4.46184 15.9976 3.8471 15.9976 3.26267Z" fill="white"/>
<path d="M11.3364 31.6951C9.53445 31.6951 8.07373 30.2341 8.07373 28.4325C8.07373 27.848 8.44867 27.2333 8.86673 26.5478C9.39361 25.684 9.98897 24.7079 9.98897 23.5385C9.98897 22.3691 9.39361 21.393 8.86673 20.5292C8.44867 19.8437 8.07373 19.2289 8.07373 18.6445C8.07373 18.5661 8.07648 18.4885 8.08192 18.4115C8.07648 18.3345 8.07373 18.2568 8.07373 18.1784C8.07373 17.594 8.44867 16.9792 8.86673 16.2938C9.39361 15.43 9.98897 14.4538 9.98897 13.2845C9.98897 12.115 9.39361 11.1389 8.86673 10.2751C8.44867 9.58964 8.07373 8.97491 8.07373 8.39048C8.07373 6.58888 9.53445 5.12781 11.3364 5.12781C13.1383 5.12781 14.599 6.58888 14.599 8.39048C14.599 8.95777 14.2457 9.51068 13.8426 10.1415C13.3071 10.9794 12.6838 11.9549 12.6838 13.2845C12.6838 14.4538 13.2791 15.43 13.806 16.2938C14.2241 16.9792 14.599 17.594 14.599 18.1784C14.599 18.2567 14.5963 18.3345 14.5908 18.4114C14.5963 18.4884 14.599 18.5661 14.599 18.6445C14.599 19.2289 14.2241 19.8437 13.806 20.5292C13.2791 21.393 12.6838 22.3691 12.6838 23.5385C12.6838 24.868 13.3071 25.8435 13.8426 26.6814C14.2457 27.3123 14.599 27.8651 14.599 28.4325C14.599 30.2341 13.1383 31.6951 11.3364 31.6951Z" fill="white"/>
</svg>
