<svg width="148" height="42" viewBox="0 0 148 42" fill="none" xmlns="http://www.w3.org/2000/svg">
<path d="M70.1923 25.2946V40.1688H75.0248V24.328C75.0248 22.3233 74.5951 20.5512 73.7363 19.0119C72.877 17.4726 71.6958 16.2733 70.1923 15.4142C68.7244 14.555 67.024 14.1254 65.0909 14.1254C63.1577 14.1254 61.4213 14.5729 59.8821 15.4678C58.7228 16.115 57.7562 16.945 56.9824 17.9578V1.82861H52.1499V40.1688H56.9824V25.2946C56.9824 24.0058 57.2686 22.8602 57.8417 21.8579C58.4142 20.8555 59.2018 20.068 60.2045 19.4952C61.2067 18.9224 62.3523 18.636 63.6412 18.636C65.5739 18.636 67.1491 19.2625 68.3664 20.5154C69.5837 21.7684 70.1923 23.3614 70.1923 25.2946Z" fill="#FFFFFE"/>
<path d="M83.5014 39.3095C85.1839 40.2405 87.081 40.7058 89.1931 40.7058C91.3409 40.7058 93.2207 40.2405 94.8315 39.3095C96.4779 38.3429 97.7669 37.0184 98.6979 35.3359C99.6284 33.6533 100.094 31.7024 100.094 29.4829V14.6624H95.2612V29.2683C95.2612 31.3805 94.7242 33.0447 93.6498 34.262C92.576 35.4436 91.0907 36.034 89.1931 36.034C87.9403 36.034 86.8486 35.7655 85.9176 35.2286C84.9866 34.6916 84.2707 33.9218 83.7699 32.9196C83.3041 31.8813 83.0717 30.6641 83.0717 29.2683V14.6624H78.2388V29.4829C78.2388 31.7024 78.704 33.6533 79.635 35.3359C80.5655 37.0184 81.8545 38.3429 83.5014 39.3095Z" fill="#FFFFFE"/>
<path fill-rule="evenodd" clip-rule="evenodd" d="M115.7 40.7058C113.158 40.7058 110.867 40.1332 108.827 38.9877C106.786 37.806 105.175 36.213 103.994 34.2086C102.813 32.2037 102.222 29.9304 102.222 27.3885C102.222 24.8828 102.795 22.6275 103.94 20.6228C105.121 18.6181 106.697 17.0429 108.665 15.8974C110.67 14.7161 112.908 14.1254 115.378 14.1254C117.741 14.1254 119.817 14.6624 121.606 15.7363C123.432 16.8103 124.846 18.2959 125.849 20.1932C126.887 22.0905 127.406 24.2384 127.406 26.637C127.406 26.995 127.388 27.3885 127.352 27.8182C127.316 28.2123 127.245 28.6775 127.138 29.2144H107.162C107.333 30.208 107.637 31.1207 108.075 31.953C108.791 33.2776 109.811 34.3159 111.136 35.0674C112.46 35.7833 113.981 36.1413 115.7 36.1413C117.132 36.1413 118.439 35.8911 119.62 35.3898C120.837 34.8884 121.875 34.1369 122.734 33.1342L125.849 36.3025C124.632 37.7343 123.128 38.8265 121.338 39.578C119.584 40.33 117.704 40.7058 115.7 40.7058ZM108.021 22.6633C107.62 23.4236 107.337 24.2649 107.173 25.1871H122.696C122.564 24.1314 122.29 23.2007 121.875 22.3948C121.267 21.1777 120.407 20.2469 119.297 19.6026C118.188 18.9224 116.846 18.5823 115.27 18.5823C113.624 18.5823 112.174 18.9403 110.921 19.6563C109.668 20.3722 108.701 21.3746 108.021 22.6633Z" fill="#FFFFFE"/>
<path d="M130.527 38.558C131.601 39.2378 132.765 39.7753 134.018 40.1688C135.306 40.5268 136.667 40.7058 138.099 40.7058C140.963 40.7058 143.236 40.0076 144.918 38.6114C146.637 37.2157 147.496 35.3181 147.496 32.9196C147.496 31.3444 147.156 30.0737 146.476 29.1072C145.831 28.1406 144.99 27.3707 143.952 26.7982C142.914 26.2252 141.822 25.7777 140.676 25.4559C139.531 25.0977 138.421 24.7575 137.347 24.4354C136.309 24.1132 135.468 23.7194 134.823 23.254C134.179 22.7886 133.857 22.1263 133.857 21.2672C133.857 20.408 134.215 19.7457 134.931 19.2803C135.683 18.7792 136.757 18.5286 138.153 18.5286C139.477 18.5286 140.659 18.7792 141.697 19.2803C142.771 19.7815 143.666 20.4975 144.382 21.4283L147.496 18.3138C146.494 16.9177 145.205 15.8795 143.63 15.1993C142.09 14.4834 140.318 14.1254 138.313 14.1254C136.416 14.1254 134.787 14.4297 133.427 15.0382C132.103 15.6468 131.064 16.5239 130.313 17.6694C129.561 18.7792 129.185 20.1038 129.185 21.6431C129.185 23.1824 129.507 24.4175 130.152 25.3482C130.832 26.2791 131.691 27.0128 132.729 27.5497C133.767 28.0867 134.859 28.5341 136.005 28.8921C137.186 29.2144 138.296 29.5546 139.334 29.9126C140.372 30.2349 141.213 30.6641 141.857 31.2015C142.538 31.7024 142.878 32.4183 142.878 33.3493C142.878 34.2798 142.466 35.014 141.643 35.5509C140.82 36.0518 139.656 36.3025 138.153 36.3025C136.649 36.3025 135.289 36.034 134.071 35.497C132.855 34.9245 131.78 34.0652 130.85 32.9196L127.735 36.034C128.523 37.0006 129.453 37.8421 130.527 38.558Z" fill="#FFFFFE"/>
<path d="M142.973 6.09827V7.04991H141.827V9.94516H140.739V7.04991H139.594V6.09827H142.973Z" fill="#FFFFFE"/>
<path d="M147.437 6.04053V9.96242H146.35V8.05913L145.553 8.95312H145.227L144.43 8.05913V9.96242H143.343V6.04053H143.727L145.39 7.71307L147.054 6.04053H147.437Z" fill="#FFFFFE"/>
<path d="M5.80374 12.3574C7.30875 17.1829 12.4406 19.8747 17.266 18.3698C22.0915 16.8648 33.5208 9.00793 32.0157 4.18249C30.5106 -0.642998 16.6416 -0.609846 11.8161 0.89511C6.9906 2.40012 4.29879 7.53196 5.80374 12.3574Z" fill="white"/>
<path d="M2.8879 38.8173C5.72021 41.6499 10.3118 41.6499 13.1441 38.8173C15.9764 35.9851 21.1043 26.2653 18.2725 23.4328C15.4402 20.6008 5.72021 25.7288 2.8879 28.561C0.0555953 31.3932 0.0555953 35.9851 2.8879 38.8173Z" fill="white"/>
<path d="M29.9887 41.6023C34.8715 42.9105 39.89 40.0128 41.1983 35.1305C42.5061 30.2477 41.9778 16.3889 37.0955 15.0805C32.2127 13.7724 24.8257 25.5103 23.5173 30.3926C22.2089 35.2749 25.1063 40.294 29.9887 41.6023Z" fill="white"/>
</svg>
