<svg width="150" height="38" viewBox="0 0 150 38" fill="none" xmlns="http://www.w3.org/2000/svg">
<path d="M57.6738 10.3784V37.1681H51.1481V26.1393H40.9969V37.1681H34.4712V10.3784H40.9969V20.873H51.1481V10.3784H57.6738Z" fill="white"/>
<path d="M64.1401 13.6603C62.9951 13.6603 62.0538 13.3296 61.3163 12.6681C60.6038 11.9812 60.2476 11.1416 60.2476 10.1494C60.2476 9.13178 60.6038 8.29222 61.3163 7.63072C62.0538 6.94383 62.9951 6.60034 64.1401 6.60034C65.2595 6.60034 66.1756 6.94383 66.8876 7.63072C67.6257 8.29222 67.9945 9.13178 67.9945 10.1494C67.9945 11.1416 67.6257 11.9812 66.8876 12.6681C66.1756 13.3296 65.2595 13.6603 64.1401 13.6603ZM67.3838 15.8737V37.1681H60.8582V15.8737H67.3838Z" fill="white"/>
<path d="M82.4546 31.6344V37.1681H79.1346C76.7684 37.1681 74.924 36.5956 73.6014 35.4507C72.2783 34.2806 71.617 32.385 71.617 29.7644V21.2927H69.022V15.8737H71.617V10.6837H78.1426V15.8737H82.4165V21.2927H78.1426V29.8412C78.1426 30.4769 78.2952 30.935 78.6003 31.215C78.9058 31.4944 79.4146 31.6344 80.127 31.6344H82.4546Z" fill="white"/>
<path d="M104.636 26.1775C104.636 26.7881 104.598 27.4243 104.522 28.0856H89.7531C89.855 29.4087 90.275 30.4263 91.0125 31.1387C91.7757 31.8256 92.7044 32.1688 93.7982 32.1688C95.4268 32.1688 96.5588 31.4819 97.195 30.1082H104.14C103.784 31.5075 103.135 32.7669 102.194 33.8863C101.278 35.0057 100.121 35.8832 98.7213 36.5194C97.3219 37.1556 95.7575 37.4733 94.0275 37.4733C91.9412 37.4733 90.0838 37.0282 88.4556 36.1376C86.8275 35.2475 85.5556 33.9751 84.6394 32.3214C83.7237 30.6681 83.2656 28.7344 83.2656 26.5207C83.2656 24.3075 83.7112 22.374 84.6013 20.7204C85.5174 19.0667 86.7894 17.7946 88.4175 16.9042C90.0457 16.0137 91.9157 15.5685 94.0275 15.5685C96.0881 15.5685 97.92 16.001 99.5226 16.866C101.126 17.731 102.372 18.9649 103.263 20.5677C104.178 22.1705 104.636 24.0405 104.636 26.1775ZM97.9581 24.4601C97.9581 23.3408 97.5763 22.4504 96.8132 21.7889C96.05 21.1274 95.0957 20.7967 93.9512 20.7967C92.8569 20.7967 91.9287 21.1147 91.1651 21.7507C90.4275 22.3868 89.9694 23.2899 89.7913 24.4601H97.9581Z" fill="white"/>
<path d="M105.255 26.5207C105.255 24.3075 105.7 22.374 106.591 20.7204C107.507 19.0667 108.766 17.7946 110.369 16.9042C111.997 16.0137 113.854 15.5685 115.94 15.5685C118.612 15.5685 120.838 16.2681 122.619 17.6674C124.425 19.0667 125.608 21.0384 126.168 23.5825H119.222C118.637 21.9543 117.505 21.1401 115.826 21.1401C114.63 21.1401 113.676 21.6108 112.964 22.5521C112.252 23.468 111.895 24.7907 111.895 26.5207C111.895 28.2507 112.252 29.5869 112.964 30.5281C113.676 31.4438 114.63 31.9019 115.826 31.9019C117.505 31.9019 118.637 31.0876 119.222 29.4594H126.168C125.608 31.9526 124.425 33.9119 122.619 35.3363C120.812 36.7613 118.587 37.4733 115.94 37.4733C113.854 37.4733 111.997 37.0282 110.369 36.1376C108.766 35.2475 107.507 33.9751 106.591 32.3214C105.7 30.6681 105.255 28.7344 105.255 26.5207Z" fill="white"/>
<path d="M141.221 15.6448C143.664 15.6448 145.623 16.4589 147.098 18.0872C148.574 19.69 149.312 21.9034 149.312 24.7275V37.1682H142.824V25.6051C142.824 24.1806 142.455 23.0737 141.718 22.285C140.979 21.4963 139.988 21.102 138.741 21.102C137.494 21.102 136.502 21.4963 135.764 22.285C135.026 23.0737 134.658 24.1806 134.658 25.6051V37.1682H128.132V8.92834H134.658V18.736C135.319 17.7946 136.222 17.0441 137.367 16.4844C138.512 15.9247 139.797 15.6448 141.221 15.6448Z" fill="white"/>
<path d="M0.682129 23.1647V0H8.40538V11.9078C9.75332 11.3874 11.2182 11.1022 12.7497 11.1022C19.4144 11.1022 24.8171 16.505 24.8171 23.1697V37.1681H17.094V23.1697C17.094 20.7704 15.149 18.8254 12.7497 18.8254C10.3514 18.8254 8.40707 20.7687 8.40538 23.1666C8.40538 23.1676 8.40538 23.1687 8.40538 23.1697V37.1681H0.682129V23.1697C0.682129 23.1681 0.682129 23.1664 0.682129 23.1647Z" fill="white"/>
<path d="M17.0938 7.72325V0H24.8168V7.72325H17.0938Z" fill="white"/>
</svg>
