<svg width="42" height="42" viewBox="0 0 42 42" fill="none" xmlns="http://www.w3.org/2000/svg">
<path d="M29.75 36.75V33.25C29.75 31.3935 29.0125 29.613 27.6997 28.3003C26.387 26.9875 24.6065 26.25 22.75 26.25H8.75C6.89348 26.25 5.11301 26.9875 3.80025 28.3003C2.4875 29.613 1.75 31.3935 1.75 33.25V36.75" stroke="white" stroke-width="3" stroke-linecap="round" stroke-linejoin="round"/>
<path d="M15.75 19.25C19.616 19.25 22.75 16.116 22.75 12.25C22.75 8.38401 19.616 5.25 15.75 5.25C11.884 5.25 8.75 8.38401 8.75 12.25C8.75 16.116 11.884 19.25 15.75 19.25Z" stroke="white" stroke-width="3" stroke-linecap="round" stroke-linejoin="round"/>
<path d="M40.25 36.75V33.25C40.2488 31.699 39.7326 30.1923 38.7824 28.9665C37.8322 27.7407 36.5017 26.8652 35 26.4775" stroke="url(#paint0_linear_437_2508)" stroke-width="3" stroke-linecap="round" stroke-linejoin="round"/>
<path d="M28 5.47748C29.5057 5.863 30.8403 6.7387 31.7934 7.96652C32.7464 9.19434 33.2637 10.7044 33.2637 12.2587C33.2637 13.813 32.7464 15.3231 31.7934 16.5509C30.8403 17.7788 29.5057 18.6545 28 19.04" stroke="url(#paint1_linear_437_2508)" stroke-width="3" stroke-linecap="round" stroke-linejoin="round"/>
<defs>
<linearGradient id="paint0_linear_437_2508" x1="31" y1="26" x2="45.7072" y2="38.6797" gradientUnits="userSpaceOnUse">
<stop stop-color="#DEC880"/>
<stop offset="0.223958" stop-color="white"/>
<stop offset="0.578125" stop-color="#FF347D"/>
<stop offset="1" stop-color="#827DED"/>
<stop offset="1" stop-color="#827DED"/>
</linearGradient>
<linearGradient id="paint1_linear_437_2508" x1="33.5" y1="22" x2="26.2891" y2="5.53017" gradientUnits="userSpaceOnUse">
<stop stop-color="#DEC880"/>
<stop offset="0.223958" stop-color="white"/>
<stop offset="0.578125" stop-color="#FF347D"/>
<stop offset="1" stop-color="#827DED"/>
<stop offset="1" stop-color="#827DED"/>
</linearGradient>
</defs>
</svg>
