<svg width="421" height="172" viewBox="0 0 421 172" fill="none" xmlns="http://www.w3.org/2000/svg">
<path d="M160.223 118.627C152.792 118.627 146.997 116.572 142.836 112.46C138.725 108.349 136.669 102.479 136.669 94.8509V65.7246H148.706V94.4051C148.706 103.718 152.57 108.374 160.297 108.374C164.062 108.374 166.935 107.259 168.916 105.03C170.897 102.752 171.888 99.2099 171.888 94.4051V65.7246H183.776V94.8509C183.776 102.479 181.696 108.349 177.535 112.46C173.424 116.572 167.653 118.627 160.223 118.627Z" fill="white"/>
<path d="M189.652 92.176H210.68V101.464H189.652V92.176Z" fill="white"/>
<path d="M224.991 75.5324H208.347V65.7246H253.672V75.5324H237.028V117.736H224.991V75.5324Z" fill="white"/>
<path d="M295.016 77.7615V117.736H284.02V112.981C282.484 114.714 280.651 116.052 278.521 116.993C276.391 117.884 274.088 118.33 271.611 118.33C266.361 118.33 262.2 116.819 259.129 113.798C256.058 110.776 254.522 106.293 254.522 100.349V77.7615H266.113V98.6403C266.113 105.08 268.813 108.3 274.212 108.3C276.986 108.3 279.215 107.408 280.899 105.625C282.583 103.792 283.425 101.092 283.425 97.5258V77.7615H295.016Z" fill="white"/>
<path d="M313.111 83.0369C314.498 81.1051 316.355 79.6438 318.683 78.6531C321.061 77.6624 323.785 77.1671 326.856 77.1671V87.8665C325.569 87.7675 324.702 87.7179 324.256 87.7179C320.937 87.7179 318.337 88.6591 316.454 90.5414C314.572 92.3742 313.631 95.1481 313.631 98.8632V117.736H302.04V77.7615H313.111V83.0369Z" fill="white"/>
<path d="M354.33 77.1671C359.284 77.1671 363.271 78.6531 366.293 81.6252C369.364 84.5973 370.899 89.0058 370.899 94.8509V117.736H359.308V96.6341C359.308 93.4639 358.615 91.111 357.228 89.5755C355.841 87.9904 353.835 87.1978 351.209 87.1978C348.287 87.1978 345.959 88.1142 344.225 89.947C342.491 91.7302 341.624 94.4051 341.624 97.9716V117.736H330.033V77.7615H341.104V82.4425C342.64 80.7583 344.547 79.4704 346.826 78.5788C349.104 77.6377 351.606 77.1671 354.33 77.1671Z" fill="white"/>
<path fill-rule="evenodd" clip-rule="evenodd" d="M84.8865 52.2071C86.8632 50.2304 90.068 50.2304 92.0447 52.2071L110.555 70.7177L91.9605 88.4673C89.9384 90.3975 86.7345 90.323 84.8043 88.3009C82.8741 86.2788 82.9486 83.0749 84.9707 81.1447L90.6798 75.6951H78.3424C68.4652 75.6951 60.4581 83.7022 60.4581 93.5794C60.4581 103.457 68.4652 111.464 78.3424 111.464H103.313C106.108 111.464 108.375 113.73 108.375 116.525C108.375 119.321 106.108 121.587 103.313 121.587H78.3424C62.8743 121.587 50.335 109.048 50.335 93.5794C50.335 78.1113 62.8743 65.5719 78.3424 65.5719H91.0932L84.8865 59.3653C82.9099 57.3886 82.9099 54.1838 84.8865 52.2071Z" fill="white"/>
</svg>
