<svg width="256" height="256" viewBox="0 0 256 256" fill="none" xmlns="http://www.w3.org/2000/svg">
<rect x="16" y="16" width="224" height="224" rx="61.25" fill="black"/>
<path d="M118.602 112.114C123.863 109.077 132.394 109.077 137.655 112.114L193.921 144.597C199.183 147.634 199.183 152.559 193.921 155.596L137.655 188.079C132.394 191.116 123.863 191.116 118.602 188.079L62.3355 155.596C57.0742 152.559 57.0742 147.634 62.3355 144.597L118.602 112.114Z" fill="url(#paint0_linear_64_398)" stroke="#7A7A7A" stroke-width="2"/>
<path d="M118.525 90.9396C123.786 87.9023 132.317 87.9023 137.578 90.9396L193.844 123.422C199.106 126.46 199.106 131.384 193.844 134.422L137.578 166.904C132.317 169.942 123.786 169.942 118.525 166.904L62.2585 134.422C56.9972 131.384 56.9972 126.46 62.2585 123.422L118.525 90.9396Z" fill="url(#paint1_linear_64_398)" fill-opacity="0.6" stroke="white" stroke-width="2"/>
<path d="M117.659 67.1296C123.399 63.8161 132.704 63.8161 138.444 67.1296L194.711 99.6122C200.45 102.926 200.45 108.298 194.711 111.611L138.444 144.094C132.704 147.408 123.399 147.408 117.659 144.094L61.3925 111.611C55.6529 108.298 55.6529 102.926 61.3925 99.6122L117.659 67.1296Z" fill="url(#paint2_linear_64_398)"/>
<rect x="201" y="6" width="48" height="48" rx="7" fill="black" stroke="url(#paint3_linear_64_398)" stroke-width="4"/>
<path d="M213 32.6291V27.423H236V32.6291H213ZM221.866 18H227.186V42H221.866V18Z" fill="white"/>
<defs>
<linearGradient id="paint0_linear_64_398" x1="86.1799" y1="122.738" x2="170.328" y2="130.082" gradientUnits="userSpaceOnUse">
<stop stop-color="#303639"/>
<stop offset="1" stop-color="#303639" stop-opacity="0"/>
</linearGradient>
<linearGradient id="paint1_linear_64_398" x1="86.1029" y1="101.563" x2="170.251" y2="108.907" gradientUnits="userSpaceOnUse">
<stop stop-color="white"/>
<stop offset="1" stop-color="white" stop-opacity="0"/>
</linearGradient>
<linearGradient id="paint2_linear_64_398" x1="26.6802" y1="120.5" x2="166.823" y2="186.925" gradientUnits="userSpaceOnUse">
<stop offset="0.104745" stop-color="#DEC880"/>
<stop offset="0.206319" stop-color="white"/>
<stop offset="0.567708" stop-color="#FF347D"/>
<stop offset="1" stop-color="#827DED"/>
</linearGradient>
<linearGradient id="paint3_linear_64_398" x1="200.74" y1="26.3618" x2="249.115" y2="26.3618" gradientUnits="userSpaceOnUse">
<stop stop-color="#DEC880"/>
<stop offset="0.155674" stop-color="white"/>
<stop offset="0.567708" stop-color="#FF347D"/>
<stop offset="1" stop-color="#827DED"/>
</linearGradient>
</defs>
</svg>
